<mxfile host="app.diagrams.net" agent="Mozilla/5.0 (Windows NT 10.0; Win64; x64) AppleWebKit/537.36 (KHTML, like Gecko) Chrome/131.0.0.0 Safari/537.36" version="24.8.6">
  <diagram name="Page-1" id="2YBvvXClWsGukQMizWep">
    <mxGraphModel dx="1020" dy="398" grid="1" gridSize="10" guides="1" tooltips="1" connect="1" arrows="1" fold="1" page="1" pageScale="1" pageWidth="850" pageHeight="1100" math="0" shadow="0">
      <root>
        <mxCell id="0" />
        <mxCell id="1" parent="0" />
        <mxCell id="aM9ryv3xv72pqoxQDRHE-1" value="IFS Erp sys api" style="shape=umlLifeline;perimeter=lifelinePerimeter;whiteSpace=wrap;html=1;container=0;dropTarget=0;collapsible=0;recursiveResize=0;outlineConnect=0;portConstraint=eastwest;newEdgeStyle={&quot;edgeStyle&quot;:&quot;elbowEdgeStyle&quot;,&quot;elbow&quot;:&quot;vertical&quot;,&quot;curved&quot;:0,&quot;rounded&quot;:0};" parent="1" vertex="1">
          <mxGeometry x="230" y="120" width="100" height="250" as="geometry" />
        </mxCell>
        <mxCell id="aM9ryv3xv72pqoxQDRHE-2" value="" style="html=1;points=[];perimeter=orthogonalPerimeter;outlineConnect=0;targetShapes=umlLifeline;portConstraint=eastwest;newEdgeStyle={&quot;edgeStyle&quot;:&quot;elbowEdgeStyle&quot;,&quot;elbow&quot;:&quot;vertical&quot;,&quot;curved&quot;:0,&quot;rounded&quot;:0};" parent="aM9ryv3xv72pqoxQDRHE-1" vertex="1">
          <mxGeometry x="45" y="80" width="10" height="170" as="geometry" />
        </mxCell>
        <mxCell id="aM9ryv3xv72pqoxQDRHE-4" value="" style="html=1;points=[];perimeter=orthogonalPerimeter;outlineConnect=0;targetShapes=umlLifeline;portConstraint=eastwest;newEdgeStyle={&quot;edgeStyle&quot;:&quot;elbowEdgeStyle&quot;,&quot;elbow&quot;:&quot;vertical&quot;,&quot;curved&quot;:0,&quot;rounded&quot;:0};" parent="aM9ryv3xv72pqoxQDRHE-1" vertex="1">
          <mxGeometry x="45" y="130" width="15" height="70" as="geometry" />
        </mxCell>
        <mxCell id="aM9ryv3xv72pqoxQDRHE-5" value="IFS DB" style="shape=umlLifeline;perimeter=lifelinePerimeter;whiteSpace=wrap;html=1;container=0;dropTarget=0;collapsible=0;recursiveResize=0;outlineConnect=0;portConstraint=eastwest;newEdgeStyle={&quot;edgeStyle&quot;:&quot;elbowEdgeStyle&quot;,&quot;elbow&quot;:&quot;vertical&quot;,&quot;curved&quot;:0,&quot;rounded&quot;:0};" parent="1" vertex="1">
          <mxGeometry x="590" y="120" width="100" height="250" as="geometry" />
        </mxCell>
        <mxCell id="aM9ryv3xv72pqoxQDRHE-6" value="" style="html=1;points=[];perimeter=orthogonalPerimeter;outlineConnect=0;targetShapes=umlLifeline;portConstraint=eastwest;newEdgeStyle={&quot;edgeStyle&quot;:&quot;elbowEdgeStyle&quot;,&quot;elbow&quot;:&quot;vertical&quot;,&quot;curved&quot;:0,&quot;rounded&quot;:0};" parent="aM9ryv3xv72pqoxQDRHE-5" vertex="1">
          <mxGeometry x="40" y="80" width="10" height="170" as="geometry" />
        </mxCell>
        <mxCell id="aM9ryv3xv72pqoxQDRHE-7" value="Request To Get Data From DB" style="html=1;verticalAlign=bottom;endArrow=block;edgeStyle=elbowEdgeStyle;elbow=vertical;curved=0;rounded=0;" parent="1" source="aM9ryv3xv72pqoxQDRHE-2" target="aM9ryv3xv72pqoxQDRHE-6" edge="1">
          <mxGeometry relative="1" as="geometry">
            <mxPoint x="195" y="130" as="sourcePoint" />
            <Array as="points">
              <mxPoint x="470" y="270" />
              <mxPoint x="180" y="120" />
            </Array>
          </mxGeometry>
        </mxCell>
        <mxCell id="Odu70AZVy3-vQ3g0MWYu-2" value="Actor" style="shape=umlActor;verticalLabelPosition=bottom;verticalAlign=top;html=1;outlineConnect=0;" vertex="1" parent="1">
          <mxGeometry x="160" y="60" width="30" height="60" as="geometry" />
        </mxCell>
        <mxCell id="Odu70AZVy3-vQ3g0MWYu-3" value="/projects" style="text;html=1;align=center;verticalAlign=middle;resizable=0;points=[];autosize=1;strokeColor=none;fillColor=none;" vertex="1" parent="1">
          <mxGeometry x="100" y="268" width="70" height="30" as="geometry" />
        </mxCell>
        <mxCell id="Odu70AZVy3-vQ3g0MWYu-10" value="" style="endArrow=classic;html=1;rounded=0;" edge="1" parent="1">
          <mxGeometry relative="1" as="geometry">
            <mxPoint x="170" y="282.40999999999997" as="sourcePoint" />
            <mxPoint x="270" y="282.40999999999997" as="targetPoint" />
          </mxGeometry>
        </mxCell>
        <mxCell id="Odu70AZVy3-vQ3g0MWYu-13" value="GET" style="edgeLabel;html=1;align=center;verticalAlign=middle;resizable=0;points=[];" vertex="1" connectable="0" parent="Odu70AZVy3-vQ3g0MWYu-10">
          <mxGeometry x="-0.3222" relative="1" as="geometry">
            <mxPoint as="offset" />
          </mxGeometry>
        </mxCell>
        <mxCell id="Odu70AZVy3-vQ3g0MWYu-19" value="" style="edgeStyle=orthogonalEdgeStyle;html=1;endArrow=none;elbow=vertical;startArrow=openThin;startFill=0;strokeColor=#545B64;rounded=0;" edge="1" parent="1">
          <mxGeometry width="100" relative="1" as="geometry">
            <mxPoint x="290" y="310" as="sourcePoint" />
            <mxPoint x="630" y="310" as="targetPoint" />
          </mxGeometry>
        </mxCell>
        <mxCell id="Odu70AZVy3-vQ3g0MWYu-20" value="&lt;font style=&quot;font-size: 11px;&quot;&gt;Response Data From IFS DB&lt;/font&gt;" style="text;html=1;align=center;verticalAlign=middle;resizable=0;points=[];autosize=1;strokeColor=none;fillColor=none;" vertex="1" parent="1">
          <mxGeometry x="370" y="288" width="170" height="30" as="geometry" />
        </mxCell>
        <mxCell id="Odu70AZVy3-vQ3g0MWYu-22" value="" style="shape=image;verticalLabelPosition=bottom;labelBackgroundColor=default;verticalAlign=top;aspect=fixed;imageAspect=0;image=data:image/png,iVBORw0KGgoAAAANSUhEUgAAAOEAAADhCAMAAAAJbSJIAAAAZlBMVEX///8AnNsAldkAmtoAmNoAlNgAntzm9Pvs+Pzi8vqm1e/0+/36/v/U6/ec0O18wuhyvue33fJZtOORzOzE4/TO6Pau2PB6weg6rOAepN5sueXS6vcwp9+k0+6FxupftuS/3/NNsOKamnSdAAAKYUlEQVR4nO2d2ZqqMAyAx7agiCLuoujo+7/kkRa0SYqCYnHOl//SAaYlabYu/PwwDMMwDMMwDMMwDMMwDMMwDMMwDMMwDMMwDMMwDMMwDMO0Jj7Ml+lil2WhDLNst9gu54e470Z1xWi1vGRCKCVtlBIiuyxXo76b9y7rU9E5KQcurv28dvO07ruRr7NOw2vvnJ2zuqlEuP2TnRwloUCys5QU/S7C5K+pa5QqS3paHYXMLvt0O9um+0smBVTe67hMo74b3YLpJZD3tguRp8kqgqYzjs5JmgtLi2VwOfTU3rZEFyHv3ctOq3q3EK+ulujWSSkWf0GOcVrJT8ogXz5vcpTkQaWvMthOPLTxLY5KVeKTs2nDm6LZoBK7kuOPtu9dhjtRKVzWrqWb7Hbnbvih1nXAppSEFPm89c3n/Hb3t4px8luKQQ3a969gPig1XCy+cjRGg0oEy5efkZR2VYZfaFTPZePE5Z1hNLqI8jW9pgYfJAlKC/ruGBqXbyp4XRM+wta8epW/bweHuRmNIu2gXZ2xNx0MumnU1uiD+O3kaZ2wUGbsbDp6Xul11KKj573Nr+mg6i7LW5vBqL5EiqkwUWiXBn5oXM93jMWl6WDYbQo7Ck0Xv8CingPTQZwitY1K8PWx6WJwfr1p3RAppwSHl33LB81ypOVDk1KpnqObiR4vUiI3OBZSrFo9aCpkcIQ/DbW5kWG/MeqvGS2o/LAQRctaPSiT1AGuRf8GdaPbEEA/OMq05qpTiwclpjMh1IWNHuOdudkXGJp2zcCP06okIZqm+IVCVoUBqNtb/bvoLyXe6YGSg9/W9zJUXnMb5XK7J4A5Ra7/w66T1r7A2IgQmNGVuBdBRdLwQRtxuwepvBFuX0l/rG0dHCVrq4PXzjdTrxjUwKEH1J2Xsp95qrR4v/Ji/zQFHUR/rOUXFvkFiG+1AqteorcoIGIa4UmmRmZwJeBNEjh5o6dBH37fvFwQN2Z4oqmJek0G5K6B7eQTrSo9JFJTPUAG9k97NcDI58HbzHEX0G4doLZwPV2hRQjqRRtBmnq94lnwNnXeZVvhuehFiHoUAo83cjUVSdkB0WxNYA9v7RS9j8SUiPDibCqOeDBLqqP6xdhO/qyF6NmcjvTwz6xfnDqqNe7RCIpq77KdvJaz8jtLrA0cqI3WrEa4ktU+pYz73LK37OlY/7emEVI3FPZNSqsRNdqm21pfiRjXiRBpd/H6WqZjb3LQI8NqQ1wvwge5AYkQ6u6aaVvj02HMsHU71YvwQW6weLQURW7vFxrL3SbhfBetpJarmDxeNVMTvJ3rdVTfZcVDuWc11V7aHvnHRyKsC94m4eP3Yv8Dbdk8xjXarAhLSfMnK5+kq9aSPn4tQGbaqzwwWV2DdWYa4Mbh1oozecga30TustOowiX6y/VjbEmxnZE0yRiQmiC9Bv9ihzEnHUP5SoR1lc8OqfGACqIt1kC1RQ8hDlQuYpwoWjGtTiKFrxV+Zhje3ycOva7OmloR1DoSrkkVk15b98TYuH2UBfIV2JJe20o9gYTBG7FNRSA6QRGAbVr02PeVQulRb40RVGcxpWDizYElPJIXoK1Iohw/GopkRj4KcTuEKAx68ybcohGZ5V5GxFGYP05Qx8XdPh3R0PgkB2RoImj2K1UiUbWl2CSXrASc1pbdjHnz4/P1ELMEcoYCuaXFJDO65Xzz2kG6hn+x8jM9g+Bwq5/ARFB3/UEWUFWaNCRhZ5nExtS33yav4J/s6NujMZ2hiAYaGss6JMTlmRoaqclZuWDtw0y07ye92KMAKoettUxmhoWotYyEa7Znh57HfpGF0jcoTnbBBXkm6NztoUIqhbosQIMBKzw6CHJ9SSHdhtME75JDdxgj82dX/Ui1V6U0WQaJRwwFbJWftJltPmH3Dtrh303ACPYwACE2lRcdnDB5hGK3Shlbfy5f9/BuG5D3VuBaPOsyGFBfvyFPd/Zw5q+HyKhBp4Br3Punu4LQ0IJ2y9L5Qrs9FTIeyhC/5YdFOC1TVIjb1cnw5FlL68Yhecu1tfCyC9iH1/bQo5Y+tKVS4str5jPKy4lxhGlVP7b0iT/El9Pgzb6ahNLwaZad9egP9cu0Yhpo/QIygZI8KN3TKAz4w55iGhyXQjV0JDjuKcKB0zQiy2xpZQgN3CfBuQUMUhStb9dPodHKEnSgPeUWOh+0jNxc1TWqomZWw7WGBKZi6r5cUQtXnT/QH8oBFfZgfO006M76PZidq4CmtKcc39RprMWgKJR0TLivXXrq2haDDG9wN6U+6zSk1gadtHN2wTFH4bT8SW2A5LPWRuqlSW3WegNXQgc18/JQnW1n4rVemiCFQYmus1xEik/i6LgKpSJWauy35k3mLVD5yKlLqELsXnyKKuFWBOh33oLMPeEqp2vKdyQAzgVASNC2UvqdezIBlDXcDqgm7JzyjUcAxxV4sNpq4nf+8OkcsHPK9zkoW6ZzwP5W1Dydxw9eWV6/QVVG2+34nscnazHw3CbZgdGAA3mGpcm5T29YcHq2nqb9TrYIn/NixxR68qfVBo530UsTHq6JatvFKTnIxo4I/K+JKte1WT/QaflWGy7hGv8Blpj/dW10beKEyEAGzU3fMqBBnZV4HHtYm9hofalYNPPQ8cVxrx3UhT2sL3WsEXYsw5Oyidc4Os6SAs593sca4YbrvBscAXLOnLlj/+u8HWv1yfqKAdZkF84lcaBObDYG+akj2qzpfotfRznmqRMjc1GkO9oRvRBCvI0ed0/2zDTYb0FCmQHaGHvqa89MucgEDJghtRnPtwXR7B9Uekwpspd9T8acQoVakSn65wkPscFwk2WPe9ec+w9JfvDcTZO8BGynNGZG9XROpjGecALwCLvYwECgJVUwEhr1uofUvQ94DKdWGjwF1NegBPveB1zt5YZ1/LkVRDcygVaVR6LUedb3Xu5ydR5q1vRuHZWrZIjZ3AailDAfKffj93q4mTGEaLTF1bl0zgo/4VbJVzkMro2r7MUV3inPxcDLDcpsqGFKZwIFGaDwpzoXo6Omvko5N4jPNolybeWbTdlutcvLUMY8CpurwUeZ15xPUxwR6ZgtdXEWjmPsqvNpvuDctuqMIWzwJjMVNDxxIBApfkHVMUp+E/saas+JGjXdxbMk6Xtk7LFwTCj3QXXWV7szdx5RnfXlZ+lFA6rz2rpyXONvO6/tKsVOz9xLv+/MvWosXk3++7Y9yr7x3MS7j39bU0sN/bqzL6/Jbyfnlw5v55f2eDhUHVGoysa9/vaX1VHC0v9BH03Y/+fnCP/YZ0Fn7fs4//6zoH/0ed63PrZq5uQY3u785vO8r4yldSZ7U9cRzWRVh/z2M9l/8Ln6Sdtz9UkI/o38799GKKDftziu8eAaro/F9y3uNZ0/9H2LAsc3SlR22W9nBdv9JVN/+xslBaMkDOCUBPgaEvxD8Pe+M6OZnhp+K+j0nRFMI6bJ7sn3nnbJH+6eYbJ+8M2u9beGZ63B311L/6fvrjEMwzAMwzAMwzAMwzAMwzAMwzAMwzAMwzAMwzAMwzAM45N/F8BqFbmAIkYAAAAASUVORK5CYII=;" vertex="1" parent="1">
          <mxGeometry x="250" y="50" width="60" height="60" as="geometry" />
        </mxCell>
        <mxCell id="Odu70AZVy3-vQ3g0MWYu-23" value="" style="shape=image;verticalLabelPosition=bottom;labelBackgroundColor=default;verticalAlign=top;aspect=fixed;imageAspect=0;image=data:image/jpeg,/9j/4AAQSkZJRgABAQAAAQABAAD/2wCEAAkGBxISDhAQEA8RFRAXEhcYFxASFxUQFRUWFRUXGBgbFxUYHigiGholGxcYITEnJSkrLy4vFx8/ODMsNygtLisBCgoKDg0OGxAQGy0mIB4rKy0tKy0tLS0tLS0tLS0tLS0tLS0tLS0tLS0tLS0rLS0tLS0tLS0tLS0tLS0tLS0tLf/AABEIAKgBLAMBEQACEQEDEQH/xAAcAAEAAQUBAQAAAAAAAAAAAAAABgEEBQcIAgP/xABJEAABAwIBBwcFDAkEAwAAAAABAAIDBBEFBgcSITFBURMiNWFxgZEUc6GxshcyUlNydJKTs8HR0hUWI0JEVGKCwjOi4fAkJTT/xAAZAQEAAwEBAAAAAAAAAAAAAAAAAgMEAQX/xAAnEQEAAgIBAwQDAQEBAQAAAAAAAQIDEQQSMTITFCFRIjNBYXFCUv/aAAwDAQACEQMRAD8A3cuOCAgICAgICAgICAgICAgICAgICAgICAgICAgICAgICAgICAgICAgICAg1XlHngENVJDTUrZWMcWmVzy3ScNR0QBsvv3rXTi7jcyzW5Gp1DF+7ZN/IRfWO/Kp+0j7R9zP0vcHzzac8bKikbHE5wBlY8uLL6rkEaxxUbcXUfEpV5O5+YbbB4LG0iAgICAgICAgICAgICAgICAgICAgICAgICAgICAgICAgIIjnPyk8iw55Y608t44+IJHOd/a2/eQrsGPrt/wAV5r9NXN69N54jgg6DzQ5S+V0Ahkdeensw32uj/cd4At/t6153Ix9Nt/bfgv1V19J2s64QEBAQEBAQEBAQEBAQEBAQEBAQEBAQEBAQEBAQEBAQEHO+d7F3z4tLG7VHBaNje4Oce0k+gL0uPWIpv7Yc9t20hKvUCAgk+bfGX0uKU7mXLZHiJ7R+82Qgeg2Pcqs1ItSVuK0xZ0uvLegICAgICAgICAgICAgICAgICAgICAgICAgICAgICAgICDTOfHJrRkjxCNvNfZk1tzgOY7vHN7gt3Fyb/Fk5FP8A1DU61sogINl5ksm+WqnVsjf2cGpl9hlcP8Wm/a4LLycmo6ftp49NzttLFsecyQsi0bN1Fx13Ky1pGvlrmVl+sU/9HgpenVzqeo8pJgRcMI3i1vSnp1NpTBKHsa9uwi4VMxpJ7XAQR3L3KJ1BQuqY42vfptaGvJDecdptrVuLH121KGS/TXbUdXnfxF99AU8fyWFx8XOK1xxqMs8izJ5uMta+qxaCKoqXPic2S8eixrdTCR70DeFHNipWkzEJYslrW1Mt1rE1otnIyjloKHl4GsMhlaz9oCWgG5JsCL7PSrMOOL21KvLea13DVvuxYj8Cl+rf+da/bUZvcXPdixH4FL9W/wDOntqf6e4ue7FiPwKX6t/509tQ9xc92LEfgUv1b/zp7an+nuLnuxYj8Cl+rf8AnT21P9PcXbhyNxZ9Xh1NUyBokkYS4NuG3Di3UD2LHkp02mIasduqu5ffKHH6eihM1TIGt2NaNbnng1u8rlKTadQ7a8VjctS41nmqHOIpKeONm50t5XnuBAHpWyvEiPKWa3In+I7LnMxV38ZbqbHEP8VZ7fH9K5zX+1I85eKj+MJ7Y4j/AIp7fH9HrX+2Wos8WIMtyjKeQdbXMPi133KE8Wn8SjkWTPJnO3BUzRQTU74ZHuDWuDhJHpONmgnURfsVN+NNY3ErqZ4tOpbHWVeICAgICAgICAgssbwxlVTTU0o5kjC08QdxHWDY9ylS01tuHLRuNS5axjDn01RLTyi0kby07r22EdRFj3r1a2i0bh5tqzWdSs1JF9qOlfLKyKNpdI9wa1o3kmwXJnUblKI3OnS2GUDMNwyOBltJrbX+FI7W53jc9wXmWmcl9vQrXprpHSbm6tcUQEEjyWrdsJ7W/ePv8VVkj+pRKRKpIQQPPX0O7z8XrK0cbzU5/Bz6vRYEzzQdNU3yZPs3Kjkfrldg84dFrzW9r3Pl0U35yz2XrTxvNRyPFoNegwgCCuieBXHTRPAo4aJ4FHXSmbNpZgtHpgttG4nS1atNxvr6ta83N5y9DF4Q0Xl1lG+vrpJi48kCWxM3NjB1auJ2nt6lvxU6K6Yst+qUeVitksKyfq6kE01LLI0fvMadH6R1KNr1r3lOKWnsyLsg8TH8BP3AH1FQ9an2l6V/ph63C54f9anmj12vIxzBfqJGtTi0T2lCazHdm82tLyuMUTdwl0zv/wBNpf6wPFQzTrHKeKPzh0wvLegICAgICAgICAgILGuwammcHTU0MjgLaUjGvNuFyNilF7V7S5NYnut/1Xof5Cl+qZ+Cl6t/tzor9PvR4HSwv04aWCN/w2Rsa7xAuuTe095disR2hg8qpnGYMPvQ0W677T93cp4+zksKrERAQfWmlLHtc33wIsuS7DYAWZMQQPPX0O7z8XrK0cbzU5/Bz6vRYEzzQdNU3yZPs3Knkfrldg84dFrzG9r3Pl0U35yz2XrTxvNRyPFoNegwpvmbH/uYfNy+wVRyPBdg8nQugOA8AvO23q6A4DwC4GgOA8Agw2WlQY8LrXt2inkt3tI+9Txxu8I3nVZctr1nmLzBqQTVVPC73sk0bCRwe8NPrXLTqJlKsbmIdW0lKyKNkUTGsjYAGsaLAAcAvImZmdy9OIiPh9rrjry9oIsQCOB1o4x9LgVLFNy8VLAyaxHKMY1jrHaLgKc3tMamXIrEfLIqDogICAgICCq66LjggogICAgw+UtFpxcoBzmelu/w2+KnSdTpyUSV6AgIMvk3RacumRzWa+1278VC86hKIS5UJCCB56+h3efi9ZWjjeanP4OfV6DAmeaDpqm+TJ9m5U8j9crsHm6LXnN7XmfLopvzlnsvWjjeajkeLQi3sKb5mumofNy+wVTyP1r8Hm6HXmtojogw2WlKZcMrY2++NPJbtDSfuVmOdXhG/wA1ly0F6rzXuKQtc17SQ5pBBG0EG4PihE6brybzw0742trmPjlAAMjBpxuPGw1t42sVhvxZ3+LZTkRr8kxoct8Nl95XwXvbRe7kiT1B9iqJw5I/i2MlJ/rOxSNcNJrg4cWkOHiFXrSb0gICAgICAgIKrrogIBXBRHBAQCNx2IIRi9CYpSLHQOtp6v8AhaKzuEJhY2UnHpkZJAAJJ2AIJxhVHyULWb9ru07fwWe07lZC7UQQQPPX0O7z8XrK0cbzU5/Bz6vQYEzzQdNU3yZPs3Knkfrldg83Ra85va8z5dFN+cs9l60cbzUcjxaEW9hZjJPH3UFWyqZG17mtcNBxIHOFtoUMlOuvSnS/TO0792uo/koPpvVHtY+1/uZ+j3a6j+Sg+m9PaR9nuZ+mQyfzuTVFZT076SINklawua51xpG1xdRvxorWZ27XPudabbI3HYsbU5sziZKPoKx4DT5NI4uieNljr0Dwc3Z1ixXqYckXr/rz8uPplFFaqEBBfYXjFRTOD6aeSI/0OIB7W7D3hRmsT3hOLzHZunNvnI8seKWrDW1VuY9vNbLbaLbn2123rFmwdPzXs14s3V8S2Osq8QEBAQEBBVddEBAK4KI4ICAgtayvijIEjgDwtcqUVmewtv01T/D/ANp/Bd6LHw9xYvAXAB4ueII9Nk6LDIKAICCB56+h3efi9ZWjjeanP4OfV6DAmeaDpqm+TJ9m5Vcj9cr8Hm6LXmtzXmfLopvzlnsvWjjeajkeLQi3sIgXR0ugzWRHStD85j9oKGTwlPH5Q6kXlPRWuJYdFUROhnibJG7axwuO0cD1qVbTWdw5MRPdrHHczEbiXUVSWcIpgXt7A8awO0Faq8r/AOoZ7ceP4iFfmqxOO+jDHKBvikBv3P0Sro5FJVTgvCLYpg9RTHRqKeWI7tNpaD2HYVbW9bdpVTWY7rFSRfWlqXxSMljcWyMcHNcNzmm4XJjcadidTt1dhFcJ6aCduySJj/pNB+9eTaNTMPTidxtdqLogICAgIKrrogICAgICDxNIGtc52wC5TW3ECragySOed58BuC01jUaR2+K64IJnk/W8pCATz26j1jcf+8FnvXUpwyardEECz2dDu8/F6ytPF81Ofwc+L0Xnppmg6ap/kyfZuVHI/XK7B5ui15re17ny6Kb85Z7L1p4vmo5Hg0Gt7CmuZ5gdjMIc0EcnLqIuPeHiquR+tdg8nQfkcfxUf0W/gvN6pbtQeRx/FR/Rb+CdUmoVbSxg3EbAeIaAU3Lun1XAQEBBbYjQR1ET4ZmNfG4WLXC+3hwPWpVtNZ3BMb+Jcp4nTclUTwg3Ecr2X46Dy2/oXrVncbeZaNTpbLqLpnNq8nBqEn4m3cHED0Ly83nL0sXjCSqpMQEBAQEFV10QEBAQEBBHsqq2wbCDt1u7Nw+9WY4/qMyjStREBBf4LW8lMCfenU7sO/uXLRuHYTdZkxcECz2dDu8/F6ytPF81Ofwc+r0Xnpnmg6ap/kyfZuVHI/XK7B5ui15re17ny6Kb85Z7L1p4vmo5Hi0Gt7Cm+ZrpqHzcvsFU8j9a/B5Oh15rcICBdBqBmehzaiVslG10IkcGOjeWv0AbC4cLEnbu2rb7Xcd2X3Gp+YSXDs7GGyW03yxOO6RhIH9zbhVTxrwsjPSWWbl9hh/j4e8kesKHo5PpP1K/bCZSZ1aKGJ3kz+XnI5oaCGA7i5xtqHAa1ZTjWmflC+esR8NBzSl7nPcbuc4uJ4lxuT4r0NaYZnby1pJAAJJ1ADWSTsAQdV5NYf5PQ0tOdscLGn5QaL+m68m87tMvSpGqxDJKCQgICAgICAgICAgICCM5V0hDmyjYdR6iNno9Suxz8aclgFYgICC5w2lMsrWDZfWeAG1cmdQ7CeWWZMQQPPZ0O7z8XrK0cXzVZ/Bz6vReemeaDpqn+TJ9m5Ucj9crsHm6LXmt7XmfLopvzlnsvWji+ajkeLQi9FhTfM101D5uX2CqOR+tfg8nQ681uEBBbYo5wp5jGCXiJ5aBrJcGm1h2rte7k9nJb2kEhwIcNoIsQesHYvYeZMKI4ICAjra2arN9IZY66sjLY2EOihcLOe7c5w3NG0cTbvyZ80a6atOHF/6luhYWsQEBAQEBAQEBAQEBAQfKspxJG5jthHgdxUonU7JQKaIsc5rtoNj3LR3hB4RwQSzJmi0I+UI5z9nU3d4/gqck/wAThmVW6IMfj2CwVkBp6lhdESDYEtN2m4IIUqXmk7hy1YtGpRj3KML+Jk+tf+Kt9zkV+hRkMCyBoKOdtRTxPErQQC573gaQsdRPBRvmvaNS7XFWs7hJ1UsY3H8DgrYDBUsLo9IOsCWkObsII7/FSpeazuEbVi0alGvcowv4mX61/wCKt9zkV+hRksn8hKGin5enicJdEtDnPc+wdtsCdqjfNe8alKuKtZ3CSqpYICAgx2KYFS1I/wDIpYZOt7GlwvwdtHcpVvavaXJrE94RmszVYY8kiGSPVsjkcB4OurY5N4VzgpLFSZl6M+9qakdvJn/FT93b6hD21ft6gzMUQIL6ipcOF2Nv4Nunu7fRHGr9pPgeQuH0hDoaVpkGyWX9q8dhds7lVbNe3eVtcVa/xI1UmICAgICAgICAgICAgICAgxuI4NHM/TJLXb7b1OLzDmlp+rMfxj/AKXqSaeo8mowQS9xHDULrnqSaZposABsG5VuqoCAgICAgICAgICAgICAgICAgICAgICAgICAgICAgICAgICAgICAgICAgICAgICAgICAgICAgICAgICAgICAgICAgICAgICAgICAgICAgjmX+UT8PoTUxxse4SMbovuBZ177FZhpF7alDJbpjbBtx7HiwPGFUpaWhwtLrIIvqGkrOjFvXUh1ZPpmcicr2YgyVpidDUxO0ZYHG5adYuDq1XBGsaiFDLj6NfUp479ST2VSxjcosXbR0k1U9rnNjaCWttpG7gNV9W0qVK9VtI2npjb6YJiAqaWCpDS0SxteGk3I0he10tXpmYKzuNr6yi6jmX+UD6DD31UTGPeHsaGvvo842vqVuKkXtqUMlumu2fp3lzGuO0tB8Qq5j5Th7QVsjpZBRHFbIKICAgICAgICAgIKo6ICAgICAgICAgICAgIIBnu6Gf56P1lX8bzU5vFNcM/8Anh80z2Qqbd1kdmv8n+ZlbiLGHmvpw9w/qtCf8j4rRf5wwor+2VnjlFRRul8qyjq+W0iA1kuthJuBycYJ1bFKs2ntQtFf7Z8abFJajJCsfPI6R7SWCR2txa2VlrnftSaxXPGjczilI822APjpaWpNdUva+lbameQYmaQaRoi261h2qvNeJtMa/qeKuqxO0cxykoohJy+UlW6o1gBkt9Fw1gGOMFWUm89qfCu0VjvZZ4piktRkeJJ3l8gqGtL3ayQ2XVfjq1dylWsVz6hyZmcXyyeVGTc1Fh/6QgxOtdPEGPIkk0o3AloI0Nmq6jTJF7dMxCVqTWvVEpHjj2VWH0dRLiT6KNzGve6N7Y9MvYDo6TuBVVfxvMRG1lvyrEzOkKoMUjgxigiw/FKipilkLJmSvdI0bALEixvcnVwV9qzNJ6q6U1mIvERO19lNiAlx2alrsQno6SONpiEbzCJCWgkueNmsu2/BUaV1j3WNy7ed31M6Z6sqf0dgdVUUtbJVDbFNK8TaGmWsADhtAJvrVeuvJETGlm+mkzE7Rqpwt0eFDEGYzUGvELZi0zhzCSA4s5K+69u7ZuVvV+fT0/Cqa/j1b+WyslcSdU0FLUvAD5IWudbUNK3Ot1XusuSvTaYaKzuIllVFIQEBAQEBAQEFUdEBAQEBAQEBAQEBAQEEIzw0Uk2Eujhje9/LRnRYC42BNzYK7jzEX+VWbxWlPl/K2FjG4NiDntY1oBZotJAA267DuUpwxM+UIxk+O0mQeAVZlr8RrGCKpqgQyPfG3cTw/dFtvNTLeuorH8MdZndp/rAZEVsWHQSU9bhlQaxsjjyracz8pfZaS3/GtWZYm87rPwjSemNTC9wHAKl2S9XTmF7Z5HSPZE4aLiNJrgLHYTomyje9fViXa1n09MlkZjj5qFmGtpKuKdlG5nLSRmONr2s0Rztusm41blHJSIt17ju7S349Ov4j+R1fDQ0L6aqwupFa0yAvbT8qZC6+jaS24EDbuVmSs3tus/H/AFCkxWuphX9Xqr9UvJ/J5OX5blORtz9Hlb30duzXZOuvrb2dM+kvMqMp312H+QUlBW8vKGMdysRjawNLSbuOrco0x9Nuq0u2v1V6YhXLXA5IHYNI6mfU0lLHoTQxt5TWA0aWhvGr/b1pjvE9Ub1Ml666fjs8Vk7a3FsKdRUU7IYJHOke+A07ACWneB8H0hdj8aW6p7k/No1DO5XY5Scu+CtwipnDLaEwgEzH3APMdtGs27Qq8dLa3Wyd7RvUwjuTmSlRLgmJwiF8Inm5SngkuHBrCHNBvsvYNueCsvkiMkT9d1dKTNJj7WmFHDmU8cVVk/UmsY0NeGwOdyjwLFwde2vapW65ncW+CJiI1MNtYNCxlNA2OEwx8m3RhIsYwRfRI3EXssdu/wAtFey8XHRAQEBAQEBAQVR0QEBAQEBAQEBAQEBAQFyRRHBAQEBBVBRAQEBAQEFbo6ojggICAgICAgICCq66ICAgICAgICAgICAgIBXJFEcEBAQEBAQEBAQEBAQEBAQEBAQEBAQEH//Z;" vertex="1" parent="1">
          <mxGeometry x="590" y="37.2" width="130" height="72.8" as="geometry" />
        </mxCell>
      </root>
    </mxGraphModel>
  </diagram>
</mxfile>
